<svg width="22" height="23" viewBox="0 0 22 23" fill="none" xmlns="http://www.w3.org/2000/svg">
<g filter="url(#filter0_d_1_995)">
<path fill-rule="evenodd" clip-rule="evenodd" d="M16.3846 8C16.3846 10.9738 13.9738 13.3846 11 13.3846C8.02616 13.3846 5.61538 10.9738 5.61538 8C5.61538 5.02616 8.02616 2.61538 11 2.61538C13.9738 2.61538 16.3846 5.02616 16.3846 8ZM18 8C18 11.866 14.866 15 11 15C7.13401 15 4 11.866 4 8C4 4.13401 7.13401 1 11 1C14.866 1 18 4.13401 18 8ZM10.5 9C10.2239 9 10 8.77614 10 8.5V4.5C10 4.22386 10.2239 4 10.5 4C10.7761 4 11 4.22386 11 4.5V8H14.5C14.7761 8 15 8.22386 15 8.5C15 8.77614 14.7761 9 14.5 9H10.5Z" fill="#1DC1AE"/>
</g>
<defs>
<filter id="filter0_d_1_995" x="-1" y="0" width="24" height="24" filterUnits="userSpaceOnUse" color-interpolation-filters="sRGB">
<feFlood flood-opacity="0" result="BackgroundImageFix"/>
<feColorMatrix in="SourceAlpha" type="matrix" values="0 0 0 0 0 0 0 0 0 0 0 0 0 0 0 0 0 0 127 0" result="hardAlpha"/>
<feOffset dy="4"/>
<feGaussianBlur stdDeviation="2"/>
<feComposite in2="hardAlpha" operator="out"/>
<feColorMatrix type="matrix" values="0 0 0 0 0 0 0 0 0 0 0 0 0 0 0 0 0 0 0.25 0"/>
<feBlend mode="normal" in2="BackgroundImageFix" result="effect1_dropShadow_1_995"/>
<feBlend mode="normal" in="SourceGraphic" in2="effect1_dropShadow_1_995" result="shape"/>
</filter>
</defs>
</svg>
