<svg width="20" height="20" viewBox="0 0 20 20" fill="none" xmlns="http://www.w3.org/2000/svg">
<g clip-path="url(#clip0_1_1362)">
<path fill-rule="evenodd" clip-rule="evenodd" d="M10.0646 0.0898438C5.00433 0.0898438 0.905518 4.59854 0.905518 10.1648C0.905518 14.6178 3.53123 18.3906 7.169 19.7265C7.62441 19.8192 7.7931 19.51 7.7931 19.2379C7.7931 18.9967 7.78747 18.3658 7.78185 17.5247C5.23485 18.1308 4.69509 16.1764 4.69509 16.1764C4.27902 15.0137 3.67741 14.6983 3.67741 14.6983C2.84529 14.0736 3.73926 14.086 3.73926 14.086C4.65573 14.1602 5.14489 15.125 5.14489 15.125C5.96015 16.665 7.28707 16.2197 7.80996 15.9599C7.8943 15.3105 8.13044 14.8652 8.38908 14.6117C6.35935 14.3643 4.2228 13.4984 4.2228 9.63912C4.2228 8.53823 4.57701 7.64144 5.16738 6.93637C5.0718 6.67661 4.75694 5.65613 5.25171 4.27074C5.25171 4.27074 6.02201 3.99861 7.77061 5.3036C8.50153 5.08095 9.28307 4.96962 10.0646 4.96344C10.8405 4.96962 11.6276 5.08095 12.3586 5.3036C14.1072 3.99861 14.8774 4.27074 14.8774 4.27074C15.3779 5.65613 15.063 6.6828 14.9674 6.93637C15.5522 7.64144 15.9063 8.53823 15.9063 9.63912C15.9063 13.5108 13.7642 14.3581 11.7233 14.6117C12.0493 14.9209 12.3473 15.5394 12.3473 16.4795C12.3473 17.8277 12.3361 18.9101 12.3361 19.244C12.3361 19.5162 12.4992 19.8254 12.9658 19.7265C16.6035 18.3906 19.2236 14.6178 19.2236 10.171C19.2236 4.59853 15.1249 0.0898438 10.0646 0.0898438Z" fill="#1DC1AE"/>
</g>
<defs>
<clipPath id="clip0_1_1362">
<rect width="20" height="20" fill="white"/>
</clipPath>
</defs>
</svg>
